<svg width="76" height="53" viewBox="0 0 76 53" fill="none" xmlns="http://www.w3.org/2000/svg">
<path d="M1.25623 0L11.728 2.43902C7.93366 16.2375 16.5286 30.1786 30.8899 33.5144C35.8239 34.649 40.9727 34.4331 45.7942 32.8895C50.6157 31.3459 54.9313 28.5318 58.2864 24.7434C60.8743 21.8072 62.7621 18.3229 63.8079 14.5526L74.3 16.9848C72.834 22.2852 70.1835 27.1843 66.5482 31.3132C61.8418 36.6279 55.7878 40.5759 49.024 42.7413C42.2602 44.9066 35.037 45.2091 28.1156 43.6169C7.99486 38.9223 -4.06125 19.3627 1.25623 0Z" fill="#E24A28"/>
<path d="M13.433 9.87151L11.7263 2.43896C10.6455 6.33511 10.5427 10.4374 11.4271 14.3827L13.1066 21.8084C12.2266 17.8636 12.3388 13.7624 13.433 9.87151Z" fill="#E24A28"/>
<path d="M66.5739 31.2998C61.8674 36.6145 55.8134 40.5625 49.0496 42.7279C42.2858 44.8932 35.0626 45.1957 28.1412 43.6035C13.9227 40.2949 3.73657 29.5877 0.839844 16.7676L2.5194 24.1933C5.41613 37.0134 15.6023 47.7274 29.8207 51.0293C36.7421 52.623 43.9657 52.3212 50.7298 50.1557C57.4939 47.9903 63.5479 44.0414 68.2534 38.7255C71.8877 34.5996 74.5361 29.7024 75.9984 24.4039L74.3257 16.9714C72.8596 22.2718 70.2092 27.1709 66.5739 31.2998Z" fill="#F36A3E"/>
</svg>
